{
  "asset": { "version": "2.0" },
  "scene": 0,
  "scenes": [{ "nodes": [0] }],
  "nodes": [{ "mesh": 0, "name": "AnimatedCube" }],
  "meshes": [{ "primitives": [{ "attributes": { "POSITION": 0 }, "indices": 1, "material": 0 }] }],
  "materials": [{ "name": "Material", "pbrMetallicRoughness": { "baseColorFactor": [1, 0, 0, 1], "metallicFactor": 0, "roughnessFactor": 1 } }],
  "accessors": [
    { "bufferView": 0, "componentType": 5126, "count": 8, "type": "VEC3", "max": [1, 1, 1], "min": [-1, -1, -1] },
    { "bufferView": 1, "componentType": 5123, "count": 36, "type": "SCALAR" },
    { "bufferView": 2, "componentType": 5126, "count": 2, "type": "SCALAR" },
    { "bufferView": 3, "componentType": 5126, "count": 2, "type": "VEC3" }
  ],
  "bufferViews": [
    { "buffer": 0, "byteOffset": 0, "byteLength": 96 },
    { "buffer": 0, "byteOffset": 96, "byteLength": 72 },
    { "buffer": 0, "byteOffset": 168, "byteLength": 8 },
    { "buffer": 0, "byteOffset": 176, "byteLength": 24 }
  ],
  "buffers": [{ "byteLength": 200, "uri": "/assets/animated-cube.bin" }],
  "animations": [{ "name": "Bounce", "channels": [{ "sampler": 0, "target": { "node": 0, "path": "translation" } }], "samplers": [{ "input": 2, "interpolation": "LINEAR", "output": 3 }] }]
}
